<?xml version="1.0" encoding="UTF-8" standalone="no"?>
<svg width="110px" height="100px" viewBox="0 0 110 100" version="1.1" xmlns="http://www.w3.org/2000/svg" xmlns:xlink="http://www.w3.org/1999/xlink">
    <!-- Generator: Sketch 39.1 (31720) - http://www.bohemiancoding.com/sketch -->
    <title>favorites_110x100</title>
    <desc>Created with Sketch.</desc>
    <defs>
        <polygon id="path-1" points="47.2128589 94.2570806 0 94.2570806 0 0.5548061 47.2128589 0.5548061 94.4257178 0.5548061 94.4257178 94.2570806 47.2128589 94.2570806"></polygon>
    </defs>
    <g id="Symbols" stroke="none" stroke-width="1" fill="none" fill-rule="evenodd">
        <g id="favorites_110x100">
            <g id="Page-1" transform="translate(9.000000, 3.000000)">
                <g id="Group-3" transform="translate(0.000000, 0.002928)">
                    <mask id="mask-2" fill="white">
                        <use xlink:href="#path-1"></use>
                    </mask>
                    <g id="Clip-2"></g>
                    <path d="M88.5242027,0.5548061 L5.90003977,0.5548061 C2.64240341,0.5548061 -0.00147537879,3.1783878 -0.00147537879,6.41394336 L-0.00147537879,88.4008715 C-0.00147537879,91.636427 2.64240341,94.2570806 5.90003977,94.2570806 L67.8688996,94.2570806 L94.4257178,67.9041394 L94.4257178,6.41394336 C94.4257178,3.1783878 91.781839,0.5548061 88.5242027,0.5548061" id="Fill-1" fill="#FFCC66" mask="url(#mask-2)"></path>
                </g>
                <path d="M73.7704148,67.9041394 C70.5098277,67.9041394 67.8688996,70.5277211 67.8688996,73.7632767 L67.8688996,94.2600087 L94.4257178,67.9041394 L73.7704148,67.9041394 Z" id="Fill-4" fill="#CCA352"></path>
                <path d="M35.7578705,36.2469368 C33.9638098,37.2454205 32.0340144,38.3171068 30.5822417,39.8309368 L24.4122076,36.419695 C21.1398174,34.6042702 19.9004992,32.0275381 20.1218061,30.2736035 C20.3313098,28.6162963 21.8184917,27.8784139 23.0283023,27.5475381 C24.0256583,27.2781525 24.8135106,27.3220741 25.4331697,27.6822309 C26.4688856,28.2854205 27.023628,29.7114074 27.1446091,30.1886885 C27.4603402,31.5385447 28.7586735,32.4023355 30.1366773,32.191512 C31.5087795,31.9777603 32.5061356,30.7421002 32.4235144,29.3541786 C32.3969576,28.914963 32.270075,25.0088715 35.982128,23.8376296 C37.5430788,23.34278 38.8207568,23.4394074 39.7827038,24.1216558 C41.0072682,24.9942309 41.7980712,26.8565054 41.8511848,28.9823094 C41.9397076,32.6219434 39.5938553,34.1123486 35.7578705,36.2469368 M42.9075561,19.75878 C41.2580826,18.5875381 38.4430598,17.463146 34.3975712,18.7368715 C31.5235333,19.647512 29.7029159,21.4102309 28.5934311,23.3339956 C28.4694992,23.2490806 28.3426167,23.1700218 28.2098326,23.0938911 C26.9055977,22.3150153 24.7043326,21.5624924 21.6591508,22.391146 C17.8143136,23.4306231 15.2530561,26.1391198 14.8104424,29.6352767 C14.2616015,33.9513028 17.0028553,38.4517996 21.7948856,41.0988061 L28.3131091,44.7062309 C28.3013061,46.0326623 29.2809576,47.1863355 30.6324045,47.3590937 C30.9894462,47.4030153 31.3435371,47.3795904 31.674022,47.2888192 C32.6890826,47.0135773 33.4946394,46.1527146 33.645128,45.0458911 C33.8546318,43.4822832 35.5660712,42.4574466 38.3397833,40.9172636 C42.1521621,38.7914597 47.3779538,35.8897081 47.2038591,28.8154074 C47.1123856,24.9913028 45.5042227,21.6034858 42.9075561,19.75878" id="Fill-6" fill="#997A3D"></path>
            </g>
        </g>
    </g>
</svg>