<?xml version="1.0" encoding="UTF-8" standalone="no"?>
<svg width="110px" height="110px" viewBox="0 0 110 110" version="1.1" xmlns="http://www.w3.org/2000/svg" xmlns:xlink="http://www.w3.org/1999/xlink">
    <!-- Generator: Sketch 39.1 (31720) - http://www.bohemiancoding.com/sketch -->
    <title>map_110x110</title>
    <desc>Created with Sketch.</desc>
    <defs></defs>
    <g id="Symbols" stroke="none" stroke-width="1" fill="none" fill-rule="evenodd">
        <g id="map_110x110">
            <g id="gps-1" transform="translate(1.000000, 1.000000)">
                <g id="Group">
                    <path d="M71.3333333,0 L71.3333333,15.1313131 C73.6289697,15.1313131 75.8273333,15.5536929 77.8568747,16.322796 L89.1212727,5.05818182 L98.6418949,7.7653899 L85.1008828,21.306402 C88.019497,24.5728202 89.7967778,28.8796242 89.7967778,33.5945414 C89.7967778,36.7399091 88.975796,39.8444222 87.4535859,42.5782182 L107,62.1248485 L107,10.142303 L71.3333333,0 L71.3333333,0 Z" id="Shape" fill="#FFCD00"></path>
                    <polygon id="Shape" fill="#FFCD00" points="71.3333333 82.6290747 71.3333333 88.6818162 82.7579071 100.10639 107 107 107 74.3526788 93.3048646 60.6575434"></polygon>
                    <polygon id="Shape" fill="#FFCD00" points="71.3333333 70.4012444 87.1909495 54.5436283 82.2131798 49.5658586 71.3333333 63.2447818"></polygon>
                    <polygon id="Shape" fill="#FFDA44" points="68.3070707 85.6555535 71.3333333 88.6818162 71.3333333 82.6290747"></polygon>
                    <polygon id="Shape" fill="#FFDA44" points="52.756404 82.3327172 35.6645051 99.4248323 35.6645051 107 68.9769556 97.527798 68.1784545 97.7547677"></polygon>
                    <polygon id="Shape" fill="#FFDA44" points="58.8534586 47.5540424 44.5295091 61.8779919 62.1931556 79.5414222 71.3333333 70.4012444 71.3333333 63.2447818"></polygon>
                    <polygon id="Shape" fill="#FFDA44" points="44.120099 50.0595717 37.194497 43.1339697 35.6645051 44.6641778 35.6645051 58.5149495"></polygon>
                    <polygon id="Shape" fill="#FFDA44" points="46.6424889 76.218802 38.4155939 67.9919071 35.6645051 70.742996 35.6645051 87.197002"></polygon>
                    <path d="M35.6645051,21.201996 L35.6645051,29.3759313 L50.2340141,43.9454404 L54.0693697,40.1100848 C53.2853515,38.0360141 52.8698889,35.8259778 52.8698889,33.5947576 C52.8698889,23.4131131 61.1516889,15.1313131 71.3333333,15.1313131 L71.3333333,0 L41.2972444,8.54054545 L51.1185475,5.74795354 L35.6645051,21.201996 L35.6645051,21.201996 Z" id="Shape" fill="#FFDA44"></path>
                    <polygon id="Shape" fill="#FFCD00" points="35.6645051 44.6641778 0 80.328899 0 94.1794545 35.6645051 58.5149495"></polygon>
                    <polygon id="Shape" fill="#FFCD00" points="35.6645051 70.742996 7.43531111 98.9721899 20.2461293 102.615378 35.6645051 87.197002"></polygon>
                    <polygon id="Shape" fill="#FFCD00" points="25.4636222 31.4030949 0 56.866501 0 68.1010687 31.0805818 37.0200545"></polygon>
                    <polygon id="Shape" fill="#FFCD00" points="29.7665354 105.322802 28.0255697 104.827576 35.6645051 107 35.6645051 99.4248323"></polygon>
                    <polygon id="Shape" fill="#FFCD00" points="31.5775374 25.2889636 35.6645051 29.3761475 35.6645051 21.201996"></polygon>
                    <polygon id="Shape" fill="#FFCD00" points="0 0 0 44.6386707 34.754897 9.88355758"></polygon>
                    <path d="M85.8202687,45.0307879 L82.2131798,49.5658586 L87.1909495,54.5436283 L62.1931556,79.5414222 L44.5295091,61.8777758 L58.8534586,47.5538263 L56.8533152,45.0392182 C55.6709111,43.5442444 54.7370929,41.8761253 54.0693697,40.1100848 L50.2340141,43.9456566 L31.5775374,25.2891798 L35.6645051,21.2022121 L51.1185475,5.7481697 L41.2972444,8.54054545 L35.6645051,10.142303 L34.754897,9.88355758 L0,44.6386707 L0,56.866501 L25.4636222,31.4028788 L31.0805818,37.0198384 L0,68.1010687 L0,80.3291152 L35.6645051,44.6641778 L37.194497,43.1341859 L44.120099,50.0597879 L0,94.1794545 L0,96.857697 L7.43531111,98.9721899 L35.6645051,70.742996 L38.4155939,67.9919071 L46.6424889,76.218802 L35.6645051,87.1967859 L20.2461293,102.615162 L28.0253535,104.82736 L29.7665354,105.322586 L35.6645051,99.4246162 L52.756404,82.332501 L68.1784545,97.7543354 L68.9769556,97.5273657 L71.3333333,96.8572646 L82.7581232,100.105958 L68.3070707,85.6555535 L93.3048646,60.6577596 L107,74.3526788 L107,62.1248485 L87.4535859,42.5784343 C86.976301,43.435299 86.4320061,44.2569293 85.8202687,45.0307879 L85.8202687,45.0307879 Z" id="Shape" fill="#FFE477"></path>
                    <path d="M85.1008828,21.3066182 L98.6418949,7.76560606 L89.1212727,5.05818182 L77.8568747,16.3225798 C80.6594101,17.384798 83.1383515,19.1099838 85.1008828,21.3066182 L85.1008828,21.3066182 Z" id="Shape" fill="#FFE477"></path>
                    <path d="M71.3333333,26.7117394 C75.1276182,26.7117394 78.2163515,29.7987434 78.2163515,33.5947576 C78.2163515,37.3890424 75.1276182,40.4777758 71.3333333,40.4777758 L71.3333333,63.2447818 L82.2131798,49.5658586 L85.8202687,45.0307879 C86.4322222,44.2569293 86.9765172,43.4355152 87.4535859,42.5784343 C88.975796,39.8446384 89.7967778,36.7403414 89.7967778,33.5947576 C89.7967778,28.8796242 88.019497,24.5730364 85.1008828,21.3066182 C83.1383515,19.1102 80.6594101,17.384798 77.8568747,16.322796 C75.8273333,15.5536929 73.6289697,15.1313131 71.3333333,15.1313131 L71.3333333,26.7117394 L71.3333333,26.7117394 Z" id="Shape" fill="#FF3501"></path>
                    <path d="M52.8698889,33.5947576 C52.8698889,35.8259778 53.2853515,38.0360141 54.0693697,40.1100848 C54.7370929,41.8763414 55.6709111,43.5442444 56.8533152,45.0392182 L58.8534586,47.5538263 L71.3333333,63.2447818 L71.3333333,40.4777758 C67.5373192,40.4777758 64.4503152,37.3890424 64.4503152,33.5947576 C64.4503152,29.7987434 67.5373192,26.7117394 71.3333333,26.7117394 L71.3333333,15.1313131 C61.1516889,15.1313131 52.8698889,23.4131131 52.8698889,33.5947576 L52.8698889,33.5947576 Z" id="Shape" fill="#FF3501"></path>
                    <path d="M71.3333333,26.7117394 C67.5373192,26.7117394 64.4503152,29.7987434 64.4503152,33.5947576 C64.4503152,37.3890424 67.5373192,40.4777758 71.3333333,40.4777758 L71.3333333,26.7117394 L71.3333333,26.7117394 Z" id="Shape" fill="#FFFFFF"></path>
                </g>
            </g>
        </g>
    </g>
</svg>