<?xml version="1.0" encoding="UTF-8" standalone="no"?>
<svg width="100px" height="110px" viewBox="0 0 100 110" version="1.1" xmlns="http://www.w3.org/2000/svg" xmlns:xlink="http://www.w3.org/1999/xlink">
    <!-- Generator: Sketch 39.1 (31720) - http://www.bohemiancoding.com/sketch -->
    <title>order_100x110</title>
    <desc>Created with Sketch.</desc>
    <defs></defs>
    <g id="Symbols" stroke="none" stroke-width="1" fill="none" fill-rule="evenodd">
        <g id="order_100x110">
            <g id="Page-1" transform="translate(3.000000, 0.000000)">
                <path d="M87.2857143,6.75788866 L6.71428571,6.75788866 C3.00464286,6.75788866 0,9.78053252 0,13.5124001 L0,101.321048 C0,105.052916 3.00464286,108.07556 6.71428571,108.07556 L87.2857143,108.07556 C90.992,108.07556 94,105.052916 94,101.321048 L94,13.5124001 C94,9.78053252 90.992,6.75788866 87.2857143,6.75788866" id="Fill-1" fill="#88C057"></path>
                <path d="M10.0714286,13.5124001 C8.21828571,13.5124001 6.71428571,15.0220334 6.71428571,16.8896558 L6.71428571,97.9437926 C6.71428571,99.8080378 8.21828571,101.321048 10.0714286,101.321048 L83.9285714,101.321048 C85.7817143,101.321048 87.2857143,99.8080378 87.2857143,97.9437926 L87.2857143,16.8896558 C87.2857143,15.0220334 85.7817143,13.5124001 83.9285714,13.5124001 L10.0714286,13.5124001 Z" id="Fill-3" fill="#FFFFFF"></path>
                <path d="M70.5,60.7906027 L23.5,60.7906027 C21.6435,60.7906027 20.1428571,62.3036132 20.1428571,64.1712356 C20.1428571,66.0354808 21.6435,67.5451141 23.5,67.5451141 L70.5,67.5451141 C72.3531429,67.5451141 73.8571429,66.0354808 73.8571429,64.1712356 C73.8571429,62.3036132 72.3531429,60.7906027 70.5,60.7906027 M50.3571429,74.2996255 L23.5,74.2996255 C21.6435,74.2996255 20.1428571,75.812636 20.1428571,77.6802584 C20.1428571,79.5445036 21.6435,81.0575141 23.5,81.0575141 L50.3571429,81.0575141 C52.2102857,81.0575141 53.7142857,79.5445036 53.7142857,77.6802584 C53.7142857,75.812636 52.2102857,74.2996255 50.3571429,74.2996255 M23.5,40.5270684 L70.5,40.5270684 C72.3531429,40.5270684 73.8571429,39.0174351 73.8571429,37.1498127 C73.8571429,35.2855676 72.3531429,33.7759343 70.5,33.7759343 L23.5,33.7759343 C21.6435,33.7759343 20.1428571,35.2855676 20.1428571,37.1498127 C20.1428571,39.0174351 21.6435,40.5270684 23.5,40.5270684 M23.5,54.0360912 L50.3571429,54.0360912 C52.2102857,54.0360912 53.7142857,52.526458 53.7142857,50.6588355 C53.7142857,48.7945904 52.2102857,47.2849571 50.3571429,47.2849571 L23.5,47.2849571 C21.6435,47.2849571 20.1428571,48.7945904 20.1428571,50.6588355 C20.1428571,52.526458 21.6435,54.0360912 23.5,54.0360912" id="Fill-5" fill="#CCCCCC"></path>
                <path d="M60.4285714,6.75788866 L53.7142857,6.75788866 C53.7142857,3.02939837 50.7062857,0 47,0 C43.2903571,0 40.2857143,3.02939837 40.2857143,6.75788866 L33.5714286,6.75788866 C29.8617857,6.75788866 26.8605,9.78053252 26.8571429,13.5124001 C26.8605,17.2408904 29.8617857,20.2635342 33.5714286,20.2635342 L60.4285714,20.2635342 C64.1348571,20.2635342 67.1395,17.2408904 67.1428571,13.5124001 C67.1395,9.78053252 64.1348571,6.75788866 60.4285714,6.75788866" id="Fill-7" fill="#666666"></path>
            </g>
        </g>
    </g>
</svg>