<?xml version="1.0" encoding="UTF-8" standalone="no"?>
<svg width="40px" height="40px" viewBox="0 0 40 40" version="1.1" xmlns="http://www.w3.org/2000/svg" xmlns:xlink="http://www.w3.org/1999/xlink">
    <!-- Generator: Sketch 39.1 (31720) - http://www.bohemiancoding.com/sketch -->
    <title>service_40x40</title>
    <desc>Created with Sketch.</desc>
    <defs></defs>
    <g id="Symbols" stroke="none" stroke-width="1" fill="none" fill-rule="evenodd">
        <g id="service_40x40" fill="#FFFFFF">
            <g id="Group">
                <path d="M40,20.3996184 L40,25.6052921 C40,27.6442809 38.3410971,29.3031837 36.3021084,29.3031837 L35.2303688,29.3031837 C34.753596,33.7823737 30.9531173,37.2834657 26.3496429,37.2834657 L23.6896123,37.2834657 C23.3066715,38.2686058 22.350842,38.9697758 21.2320913,38.9697758 L18.7679087,38.9697758 C17.3132283,38.9697758 16.1299563,37.7863135 16.1299563,36.3318234 C16.1299563,34.877143 17.3134186,33.6938709 18.7679087,33.6938709 L21.231901,33.6938709 C22.3506516,33.6938709 23.3066715,34.395041 23.689422,35.3801811 L26.3494526,35.3801811 C30.225111,35.3801811 33.3782826,32.2271998 33.3782826,28.3515414 L33.3782826,25.4330448 L33.3782826,17.6533691 L33.3782826,16.1851753 C33.3782826,8.80823456 27.3768456,2.80679758 19.9997145,2.80679758 C12.6227738,2.80679758 6.62133677,8.80823456 6.62133677,16.1851753 L6.62133677,17.6533691 L6.62133677,25.4328545 L6.62133677,28.3513511 C6.62133677,28.876848 6.19519135,29.3029934 5.66969448,29.3029934 L3.69789164,29.3029934 C1.65890285,29.3029934 0,27.6440905 0,25.6051018 L0,20.3994281 C0,18.3604393 1.65890285,16.7015364 3.69789164,16.7015364 L4.71824251,16.7015364 L4.71824251,16.184985 C4.71824251,7.75876344 11.5736833,0.903322659 19.9999048,0.903322659 C28.4263167,0.903322659 35.2817575,7.75857311 35.2817575,16.184985 L35.2817575,16.7015364 L36.3021084,16.7015364 C38.3410971,16.7017268 40,18.3606296 40,20.3996184" id="Page-1"></path>
            </g>
        </g>
    </g>
</svg>